<svg width="176" height="29" viewBox="0 0 176 29" fill="none" xmlns="http://www.w3.org/2000/svg">
<path d="M148.735 8.67733C148.735 8.67733 148.931 8.69731 149.303 8.78531C149.663 8.90397 150.205 9.10666 150.785 9.57199C151.359 10.0347 151.968 10.7493 152.381 11.7413C152.772 12.724 153.009 14.0213 152.56 15.3667C152.108 16.6893 151.037 17.9427 149.533 18.6747C148.045 19.3973 146.096 19.6027 144.287 18.88C142.473 18.1867 140.963 16.5947 140.112 14.6413C139.699 13.652 139.483 12.552 139.483 11.4213C139.5 10.288 139.793 9.15198 140.273 8.08931C141.233 5.95064 143.057 4.16931 145.3 3.08531C147.532 1.96664 150.388 1.836 152.829 2.88C155.288 3.89067 157.328 5.87332 158.585 8.29331C159.847 10.6986 160.296 13.672 159.563 16.404C159.251 17.7813 158.635 19.0813 157.875 20.2667C157.123 21.464 156.167 22.524 155.104 23.4493C154.053 24.3893 152.876 25.1853 151.629 25.8387C150.391 26.5107 149.071 27.0307 147.711 27.4053C142.183 28.892 136.445 27.8306 131.38 26.0906C126.56 24.4786 121.411 21.7666 116.095 19.4946C113.429 18.376 110.703 17.3973 107.976 16.74C107.291 16.6 106.609 16.4626 105.935 16.3253C105.256 16.2093 104.576 16.1613 103.907 16.076C102.568 15.896 101.26 15.928 99.9894 16.028C94.88 16.4346 90.7294 18.684 88.52 20.912C86.2574 23.1453 85.6627 25.0427 85.4547 24.816C85.352 24.6867 85.772 22.544 88.0814 20.0453C90.3534 17.5827 94.6614 15.1693 99.9467 14.7013C101.256 14.584 102.635 14.5387 104.005 14.7067C104.691 14.784 105.389 14.8387 106.084 14.9387C106.773 15.0733 107.468 15.2093 108.167 15.3467C110.941 15.9867 113.695 16.9453 116.36 18.048C121.669 20.2987 126.711 22.936 131.405 24.5653C133.887 25.4307 136.453 26.0906 139.069 26.4573L141.04 26.6213C141.699 26.6973 142.357 26.616 143.016 26.6213C144.344 26.6546 145.625 26.4146 146.903 26.1226C149.441 25.4853 151.859 24.304 153.871 22.6586C155.868 21.0133 157.471 18.8667 158.165 16.4387C159.743 11.5827 156.945 6.05598 152.664 4.05731C151.599 3.55865 150.44 3.25734 149.299 3.248C148.152 3.23867 147.017 3.48664 145.976 3.92131C143.883 4.78264 142.16 6.38666 141.193 8.27466C140.175 10.152 140.084 12.348 140.773 14.176C141.432 16.0187 142.815 17.4947 144.4 18.2347C146.009 18.9613 147.796 18.8573 149.217 18.248C150.657 17.6493 151.697 16.512 152.172 15.3067C152.64 14.0853 152.484 12.8387 152.144 11.88C151.793 10.9067 151.229 10.1893 150.695 9.71066C149.584 8.75866 148.705 8.732 148.735 8.67733Z" fill="#F0E3CA"/>
<path d="M171.628 20.2839C171.628 20.2839 171.635 20.3199 171.632 20.3946C171.631 20.4679 171.631 20.5812 171.576 20.7199C171.488 20.9946 171.188 21.3892 170.644 21.5586C170.14 21.7252 169.316 21.8079 168.681 21.1479C168.613 21.0613 168.555 20.9612 168.501 20.8599C168.453 20.7372 168.459 20.6746 168.405 20.6159C168.3 20.5133 168.121 20.2946 168.019 20.0972C167.789 19.6839 167.669 19.1812 167.681 18.6586C167.709 17.6226 168.207 16.4572 169.272 15.7239C170.361 14.9546 171.955 15.0879 173.169 15.8493C174.419 16.5706 175.341 18.0279 175.443 19.6586C175.505 21.2852 174.853 22.9359 173.72 24.2399C173.156 24.9106 172.417 25.3826 171.704 25.9106C170.921 26.3106 170.131 26.7426 169.268 26.9959C167.568 27.5812 165.757 27.8492 163.907 28.0279C160.189 28.3346 156.292 27.8919 152.457 27.0053C144.747 25.2426 137.379 21.6426 129.944 19.6292C129.072 19.3919 128.167 19.1452 127.236 18.8932C126.289 18.7252 125.316 18.5519 124.324 18.3759C123.827 18.2933 123.328 18.1946 122.821 18.1212C122.311 18.0799 121.797 18.0372 121.28 17.9946C120.247 17.9266 119.204 17.7799 118.155 17.7746C113.945 17.6479 109.707 18.1506 105.987 18.8759C105.061 19.0799 104.179 19.3399 103.321 19.5519C102.471 19.7852 101.635 19.9439 100.888 20.2399C99.3841 20.7893 98.0001 21.1679 96.9134 21.6386C94.7347 22.5613 93.3987 23.0346 93.3774 22.8146C93.3587 22.5946 94.6201 21.8292 96.7534 20.6986C97.8307 20.1612 99.1841 19.6733 100.679 19.0679C101.419 18.7413 102.256 18.5733 103.099 18.3066C103.951 18.0719 104.829 17.7839 105.755 17.5719C107.624 17.2493 109.587 16.7412 111.657 16.6212C112.688 16.5412 113.729 16.3732 114.784 16.3666C115.84 16.3586 116.901 16.3506 117.961 16.3426C122.187 16.5133 126.428 17.0359 129.988 18.1306C137.628 20.1279 144.987 23.7733 152.488 25.6386C156.229 26.5746 159.999 27.0892 163.592 26.8946C165.381 26.7932 167.143 26.5479 168.76 26.0786C170.399 25.6466 171.824 24.8052 172.935 23.7546C173.993 22.6452 174.651 21.2159 174.66 19.8186C174.677 18.4292 173.952 17.1533 172.909 16.4453C171.891 15.7333 170.547 15.5519 169.611 16.1146C168.671 16.6759 168.147 17.7039 168.072 18.6226C168.033 19.0866 168.111 19.5333 168.288 19.9093C168.384 20.1013 168.481 20.2546 168.631 20.4212C168.723 20.4972 168.723 20.6426 168.755 20.7212C168.777 20.8092 168.836 20.8786 168.873 20.9586C169.328 21.5266 170.107 21.5399 170.581 21.4066C171.099 21.2839 171.396 20.9452 171.507 20.6972C171.624 20.4412 171.601 20.2799 171.628 20.2839Z" fill="#F0E3CA"/>
<path d="M26.6615 8.77601C26.6895 8.83067 25.8455 8.85467 24.7615 9.772C24.2388 10.2333 23.6894 10.9307 23.3348 11.8733C23.0001 12.8067 22.8254 14.0187 23.2668 15.212C23.7121 16.3933 24.7094 17.504 26.0974 18.1387C27.4801 18.764 29.2308 18.896 30.8201 18.2187C32.4214 17.572 33.7601 16.0947 34.4908 14.324C34.8441 13.4253 35.0134 12.444 34.9988 11.4467C34.9628 10.4453 34.6841 9.44 34.2374 8.49733C33.3494 6.596 31.6548 4.99866 29.6294 4.06133C27.5948 3.09199 25.1548 3.02667 23.0055 3.96933C18.6881 5.78267 15.7521 11.2067 17.1308 16.0733C17.4148 17.2947 17.9761 18.4467 18.6681 19.5093C19.3508 20.5827 20.2268 21.5413 21.2068 22.3827C22.1735 23.24 23.2641 23.968 24.4228 24.5667C25.5708 25.184 26.7988 25.6627 28.0588 26.004C29.3175 26.36 30.6041 26.58 31.9161 26.6093L33.8881 26.656L35.8561 26.4947C38.4681 26.18 41.0534 25.596 43.5294 24.712C48.2201 23.1653 53.3148 20.4733 58.7201 18.1613C61.4308 17.024 64.2388 16.016 67.0788 15.3427C67.7948 15.2 68.5081 15.06 69.2134 14.9186C69.9241 14.8013 70.6428 14.7533 71.3455 14.6707C72.7508 14.4933 74.1694 14.5347 75.5134 14.6587C80.9388 15.1493 85.3494 17.6693 87.5814 20.2147C89.8681 22.776 90.1988 24.876 90.0188 24.78C89.7334 24.7827 89.0321 22.828 86.7094 20.6373C84.4228 18.4733 80.3228 16.3333 75.3228 15.972C74.0801 15.884 72.8015 15.8547 71.4921 16.0333C70.8388 16.116 70.1761 16.1733 69.5121 16.276C68.8521 16.412 68.1868 16.548 67.5174 16.6853C64.8548 17.3226 62.1828 18.2653 59.5681 19.356C54.3561 21.584 49.2761 24.248 44.4588 25.9413C41.9108 26.8387 39.2428 27.5333 36.4921 27.9147L34.4095 28.0867C33.7148 28.164 33.0108 28.08 32.3121 28.0827C30.9135 28.112 29.4908 27.8493 28.1228 27.5267C25.3828 26.824 22.7934 25.5413 20.6174 23.7347C18.4588 21.9307 16.6975 19.5427 15.9415 16.8053C15.1161 14.0947 15.4508 11.0947 16.6561 8.64801C17.8415 6.18535 19.8254 4.14134 22.2494 3.04267C23.4601 2.50001 24.7628 2.18266 26.0748 2.19333C27.3815 2.20266 28.6481 2.50667 29.7935 3.00934C32.0908 4.00934 33.9268 5.78932 34.9521 7.89066C36.0334 9.97466 36.0841 12.4507 35.2775 14.4307C34.5081 16.4293 32.9708 17.9947 31.2121 18.7613C29.4201 19.5173 27.4761 19.34 25.9828 18.6453C24.4628 17.9613 23.3855 16.712 22.9228 15.4107C22.4655 14.0853 22.6828 12.792 23.0694 11.816C23.4681 10.8267 24.0775 10.1187 24.6415 9.65999C25.2135 9.19866 25.7481 8.99735 26.1028 8.88268C26.4694 8.79601 26.6615 8.77601 26.6615 8.77601Z" fill="#F0E3CA"/>
<path d="M3.85209 20.284C3.87743 20.28 3.85875 20.4267 3.96409 20.656C4.06275 20.8787 4.32677 21.1893 4.8121 21.3093C5.25877 21.4427 5.99609 21.424 6.41475 20.9227C6.45875 20.8587 6.49476 20.7867 6.53209 20.7147C6.55609 20.6587 6.56544 20.5 6.64544 20.404C6.81477 20.2053 6.8961 20.0947 6.99343 19.9027C7.1681 19.5493 7.25343 19.124 7.2241 18.6773C7.1721 17.7907 6.67876 16.7827 5.78676 16.2213C4.91209 15.6387 3.59877 15.7787 2.59477 16.452C1.5441 17.1067 0.825431 18.34 0.774765 19.6907C0.760098 21.0587 1.3521 22.4827 2.37476 23.6013C2.87343 24.1707 3.55343 24.5733 4.19343 25.0347C4.91743 25.3773 5.63342 25.756 6.44675 25.976C8.03475 26.4867 9.78677 26.7133 11.5601 26.8507C15.1268 27.0787 18.8801 26.5973 22.6081 25.688C30.0908 23.892 37.4294 20.2587 45.0521 18.224C45.9468 17.984 46.8734 17.736 47.8281 17.48C48.8041 17.3067 49.8068 17.1294 50.8281 16.948C51.3401 16.8627 51.8548 16.7613 52.3761 16.6867C52.9014 16.6427 53.4308 16.5987 53.9628 16.5533C55.0281 16.4827 56.1014 16.3333 57.1828 16.3267C61.5148 16.196 65.8788 16.724 69.6894 17.5333C70.6361 17.7573 71.5388 18.0414 72.4121 18.2814C73.2801 18.5414 74.1308 18.732 74.8868 19.0627C76.4094 19.6827 77.7974 20.1467 78.8668 20.7187C81.0134 21.8453 82.2254 22.58 82.0481 22.7253C81.8721 22.872 80.4761 22.3773 78.2961 21.464C77.1934 21.036 75.8361 20.6427 74.3521 20.116C73.6188 19.8294 72.7908 19.6973 71.9601 19.464C71.1201 19.2613 70.2574 19.004 69.3508 18.8187C67.5188 18.548 65.6041 18.08 63.5868 17.9867C62.5814 17.9213 61.5694 17.7653 60.5428 17.7667C59.5161 17.7653 58.4841 17.764 57.4534 17.7613C53.3414 17.9507 49.2468 18.4493 45.7681 19.54C38.3201 21.5147 30.9308 25.112 23.2041 26.924C19.3588 27.828 15.4481 28.2933 11.7134 28.008C9.85209 27.8613 8.0361 27.5693 6.32276 27.0253C4.59476 26.52 3.03076 25.5667 1.81876 24.34C0.662759 23.06 -0.0359085 21.4307 0.00142487 19.8093C0.0294249 18.1907 0.940088 16.7173 2.14809 15.968C3.34276 15.1933 4.90277 15.032 5.99477 15.7413C7.0601 16.4427 7.56677 17.5907 7.60943 18.6053C7.62943 19.1187 7.52009 19.612 7.30409 20.0187C7.19476 20.216 7.05342 20.4107 6.91742 20.5427C6.84142 20.6053 6.84676 20.6867 6.80409 20.7907C6.77076 20.892 6.69876 20.976 6.64809 21.0653C6.06942 21.7 5.26144 21.632 4.77877 21.4707C4.25344 21.3093 3.97875 20.9373 3.89742 20.6867C3.84675 20.5587 3.84809 20.4547 3.84809 20.3853C3.84542 20.3173 3.85209 20.284 3.85209 20.284Z" fill="#F0E3CA"/>
<path d="M87.7227 0.886654C87.0547 0.886654 86.5667 1.12401 86.2294 1.61335C84.708 3.82668 86.5214 10.4427 87.7227 13.9187C88.9254 10.4427 90.7374 3.82668 89.2174 1.61335C88.88 1.12401 88.3907 0.886654 87.7227 0.886654ZM87.7227 16.452L87.3094 15.3747C87.1401 14.932 83.176 4.49334 85.5 1.11201C86.0067 0.374678 86.7547 0 87.7227 0C88.6921 0 89.4387 0.374678 89.9467 1.11201C92.2707 4.49334 88.3067 14.932 88.1374 15.3747L87.7227 16.452Z" fill="#F0E3CA"/>
<path d="M94.2055 6.94266C91.9962 6.94266 90.5588 12.0026 90.0188 14.7853C92.2575 13.636 96.2215 11.196 96.4375 9.1533C96.5042 8.5333 96.2042 7.98265 95.5202 7.46932C95.0562 7.11999 94.6135 6.94266 94.2055 6.94266ZM88.8682 16.316L88.9935 15.5C89.1415 14.5333 90.5522 6.05731 94.2055 6.05731C94.8108 6.05731 95.4308 6.29331 96.0522 6.75998C96.9922 7.46664 97.4175 8.304 97.3188 9.24666C96.9735 12.524 89.9175 15.8307 89.6175 15.9693L88.8682 16.316Z" fill="#F0E3CA"/>
<path d="M81.2414 6.94266C80.8334 6.94266 80.3907 7.11999 79.9267 7.46932C79.2441 7.98265 78.9427 8.5333 79.0094 9.1533C79.2241 11.196 83.1894 13.636 85.4281 14.7853C84.8881 12.0026 83.4494 6.94266 81.2414 6.94266ZM86.5774 16.316L85.8294 15.9693C85.528 15.8307 78.4747 12.524 78.1281 9.24666C78.0281 8.304 78.4534 7.46664 79.3934 6.75998C80.0161 6.29331 80.6374 6.05731 81.2414 6.05731C84.8947 6.05731 86.304 14.5333 86.4534 15.5L86.5774 16.316Z" fill="#F0E3CA"/>
</svg>
